<?xml version="1.0" encoding="utf-8"?>
<!-- Generator: Adobe Illustrator 24.3.0, SVG Export Plug-In . SVG Version: 6.00 Build 0)  -->
<svg version="1.1" xmlns="http://www.w3.org/2000/svg" xmlns:xlink="http://www.w3.org/1999/xlink" x="0px" y="0px"
	 viewBox="0 0 593 228.2" style="enable-background:new 0 0 593 228.2;" xml:space="preserve">
<style type="text/css">
	.st0{clip-path:url(#SVGID_2_);fill:#FFF;}
	.st1{clip-path:url(#SVGID_4_);fill:#FFF;}
	.st2{clip-path:url(#SVGID_6_);fill:#FFF;}
	.st3{clip-path:url(#SVGID_8_);fill:#FFF;}
	.st4{clip-path:url(#SVGID_10_);fill:#FFF;}
	.st5{fill:#EDEFF2;}
	.st6{fill:#9AA3B5;}
	.st7{fill:#D4D8E0;}
	.st8{fill:#B5BBC9;}
	.st9{fill:#586885;}
	.st10{fill:#1E325A;}
	.st11{fill:#E30918;}
	.st12{fill:#FFF;}
</style>
<g id="Arrière-plan_xA0_Image_1_">
	<g>
		<g>
			<g>
				<defs>
					<rect id="SVGID_1_" x="23.3" y="23.8" width="546.7" height="165.4"/>
				</defs>
				<clipPath id="SVGID_2_">
					<use xlink:href="#SVGID_1_"  style="overflow:visible;"/>
				</clipPath>
				<path class="st0" d="M316.7,122.2v-0.3c0-22.5,16.7-40.8,40.6-40.8c14.6,0,23.3,5,30.8,12.2l-8.9,10.2c-6.3-5.9-13.1-9.8-22-9.8
					c-15,0-26.1,12.4-26.1,27.8v0.3c0,15.4,11,28,26.1,28c9.7,0,15.9-3.9,22.6-10.1l8.9,9.1c-8.2,8.5-17.3,14-32,14
					C333.7,162.7,316.7,144.8,316.7,122.2"/>
			</g>
			<g>
				<defs>
					<rect id="SVGID_3_" x="23.3" y="23.8" width="546.7" height="165.4"/>
				</defs>
				<clipPath id="SVGID_4_">
					<use xlink:href="#SVGID_3_"  style="overflow:visible;"/>
				</clipPath>
				<path class="st1" d="M396.9,122.2v-0.3c0-22.2,17.1-40.8,41.4-40.8c24.2,0,41.1,18.3,41.1,40.5v0.3c0,22.2-17.1,40.8-41.4,40.8
					C413.8,162.7,396.9,144.4,396.9,122.2 M465,122.2v-0.3c0-15.3-11.1-28.1-26.8-28.1c-15.7,0-26.7,12.5-26.7,27.8v0.3
					c0,15.3,11.1,28,26.8,28S465,137.5,465,122.2"/>
			</g>
			<g>
				<defs>
					<rect id="SVGID_5_" x="23.3" y="23.8" width="546.7" height="165.4"/>
				</defs>
				<clipPath id="SVGID_6_">
					<use xlink:href="#SVGID_5_"  style="overflow:visible;"/>
				</clipPath>
				<polygon class="st2" points="179.1,149 179.1,127.8 218.7,127.8 218.7,115.4 179.1,115.4 179.1,95 223.7,95 223.7,82.6 
					160.2,82.6 165.2,89.8 165.2,161.4 224.3,161.4 224.3,149 				"/>
			</g>
			<g>
				<defs>
					<rect id="SVGID_7_" x="23.3" y="23.8" width="546.7" height="165.4"/>
				</defs>
				<clipPath id="SVGID_8_">
					<use xlink:href="#SVGID_7_"  style="overflow:visible;"/>
				</clipPath>
				<path class="st3" d="M288,131.6c11-3.2,18.7-11,18.7-23.9v-0.3c0-6.9-2.3-12.7-6.5-17c-5-4.9-12.8-7.9-22.8-7.9h-40.1l4.9,6.9
					v71.9h13.8v-27.4h17.3l19.3,27.5h16.6L288,131.6z M256.1,121.6V95.1h20.2c10.2,0,16.3,4.6,16.3,13.1v0.3
					c0,7.9-6.3,13.1-16.3,13.1H256.1z"/>
			</g>
			<g>
				<defs>
					<rect id="SVGID_9_" x="23.3" y="23.8" width="546.7" height="165.4"/>
				</defs>
				<clipPath id="SVGID_10_">
					<use xlink:href="#SVGID_9_"  style="overflow:visible;"/>
				</clipPath>
				<polygon class="st4" points="558.2,82.6 531.1,121.2 503.9,82.6 487.4,82.6 492.6,89.8 492.6,161.4 506.2,161.4 506.2,109.5 
					530.9,144.4 531.4,144.4 556.2,108.8 556.2,161.4 570.1,161.4 570.1,82.6 				"/>
			</g>
		</g>
	</g>
	<g>
		<polygon class="st5" points="81.5,23.8 100.9,57.3 120.3,23.8 		"/>
		<polygon class="st6" points="120.3,23.8 100.9,57.3 139.7,57.3 120.3,23.8 		"/>
		<polygon class="st7" points="159,23.8 139.7,57.3 178.4,57.3 159.1,23.8 		"/>
		<polygon class="st8" points="62.1,57.3 42.7,90.9 23.3,57.3 		"/>
		<polygon class="st9" points="42.7,90.9 62.1,57.3 81.5,90.9 		"/>
		<polygon class="st10" points="100.9,57.3 81.5,90.9 62.1,57.3 		"/>
		<polygon class="st8" points="81.5,90.9 100.9,57.3 120.3,90.9 		"/>
		<polygon class="st5" points="139.7,57.3 120.3,90.9 100.9,57.3 		"/>
		<polygon class="st5" points="23.3,124.5 42.7,90.9 62.1,124.5 		"/>
		<polygon class="st11" points="81.5,90.9 62.1,124.5 42.7,90.9 		"/>
		<polygon class="st7" points="62.1,124.5 81.5,90.9 100.9,124.5 		"/>
		<polygon class="st7" points="100.9,124.5 120.3,90.9 139.7,124.5 		"/>
		<polygon class="st6" points="139.7,124.5 120.3,158.1 100.9,124.5 		"/>
	</g>
</g>
<g id="Calque_1_xA0_Image_1_">
</g>
<g id="a_Thales_company">
	<g>
		<path class="st12" d="M336,199.3c-0.1-0.3-0.1-0.6-0.1-0.8c0-0.3,0-0.6,0-0.8c-0.7,0.6-1.4,1.1-2.2,1.5c-0.8,0.4-1.6,0.5-2.5,0.5
			c-0.7,0-1.3-0.1-1.9-0.3c-0.6-0.2-1.1-0.5-1.5-0.9s-0.8-0.9-1-1.5c-0.2-0.6-0.3-1.2-0.3-1.9c0.1-1,0.3-1.9,0.8-2.6
			c0.5-0.7,1.1-1.3,1.8-1.7s1.5-0.7,2.4-0.9s1.8-0.3,2.7-0.3l2.8,0l0.2-1.3c0-0.5,0-0.9-0.1-1.3c-0.1-0.4-0.2-0.7-0.5-1
			c-0.2-0.3-0.5-0.5-0.9-0.6c-0.4-0.2-0.8-0.2-1.3-0.2c-0.4,0-0.8,0-1.2,0.1c-0.4,0.1-0.8,0.3-1.1,0.5c-0.3,0.2-0.6,0.5-0.9,0.8
			c-0.2,0.3-0.4,0.7-0.5,1.1l-2.7,0c0.1-0.8,0.3-1.5,0.8-2.1s1-1.1,1.6-1.5c0.6-0.4,1.3-0.7,2.1-0.9c0.8-0.2,1.5-0.3,2.2-0.3
			c0.8,0,1.6,0.2,2.2,0.4c0.7,0.3,1.2,0.6,1.7,1.1c0.5,0.5,0.8,1,1,1.7s0.3,1.4,0.2,2.2l-1.2,7.5c-0.1,0.5-0.1,1.1-0.2,1.6
			c0,0.5,0,1.1,0.2,1.6l0,0.3H336z M331.8,197.2c0.5,0,0.9,0,1.3-0.2s0.8-0.3,1.2-0.5c0.4-0.2,0.7-0.5,1-0.8c0.3-0.3,0.6-0.6,0.9-1
			l0.6-3.3l-2,0c-0.5,0-1.1,0-1.7,0.1c-0.6,0.1-1.2,0.2-1.7,0.4c-0.5,0.2-1,0.5-1.3,0.9s-0.6,0.9-0.7,1.6c0,0.4,0,0.8,0.1,1.1
			c0.1,0.3,0.3,0.6,0.5,0.8c0.2,0.2,0.5,0.4,0.8,0.5C331,197.2,331.4,197.2,331.8,197.2z"/>
		<path class="st12" d="M367.6,180h-6.7l-3.4,19.3h-2.8l3.4-19.3h-6.7l0.4-2.4h16.3L367.6,180z"/>
		<path class="st12" d="M372.2,185.2c0.6-0.7,1.4-1.3,2.2-1.7c0.8-0.4,1.7-0.6,2.7-0.6c0.9,0,1.6,0.2,2.2,0.5c0.6,0.3,1,0.7,1.3,1.3
			c0.3,0.5,0.5,1.1,0.6,1.9c0.1,0.7,0.1,1.4,0,2.2l-1.8,10.6h-2.7l1.8-10.6c0.1-0.5,0.1-0.9,0-1.4s-0.2-0.8-0.3-1.1
			c-0.2-0.3-0.4-0.6-0.8-0.7c-0.3-0.2-0.8-0.3-1.3-0.3c-0.5,0-0.9,0-1.3,0.2c-0.4,0.1-0.8,0.3-1.1,0.6s-0.7,0.5-1,0.8
			c-0.3,0.3-0.6,0.7-0.8,1l-2,11.5h-2.7l4-22.9h2.7L372.2,185.2z"/>
		<path class="st12" d="M393.4,199.3c-0.1-0.3-0.1-0.6-0.1-0.8c0-0.3,0-0.6,0-0.8c-0.7,0.6-1.4,1.1-2.2,1.5
			c-0.8,0.4-1.6,0.5-2.5,0.5c-0.7,0-1.3-0.1-1.9-0.3c-0.6-0.2-1.1-0.5-1.5-0.9s-0.8-0.9-1-1.5c-0.2-0.6-0.3-1.2-0.3-1.9
			c0.1-1,0.3-1.9,0.8-2.6c0.5-0.7,1.1-1.3,1.8-1.7s1.5-0.7,2.4-0.9s1.8-0.3,2.7-0.3l2.8,0l0.2-1.3c0-0.5,0-0.9-0.1-1.3
			c-0.1-0.4-0.2-0.7-0.5-1c-0.2-0.3-0.5-0.5-0.9-0.6c-0.4-0.2-0.8-0.2-1.3-0.2c-0.4,0-0.8,0-1.2,0.1c-0.4,0.1-0.8,0.3-1.1,0.5
			c-0.3,0.2-0.6,0.5-0.9,0.8c-0.2,0.3-0.4,0.7-0.5,1.1l-2.7,0c0.1-0.8,0.3-1.5,0.8-2.1s1-1.1,1.6-1.5c0.6-0.4,1.3-0.7,2.1-0.9
			c0.8-0.2,1.5-0.3,2.2-0.3c0.8,0,1.6,0.2,2.2,0.4c0.7,0.3,1.2,0.6,1.7,1.1c0.5,0.5,0.8,1,1,1.7s0.3,1.4,0.2,2.2l-1.2,7.5
			c-0.1,0.5-0.1,1.1-0.2,1.6c0,0.5,0,1.1,0.2,1.6l0,0.3H393.4z M389.1,197.2c0.5,0,0.9,0,1.3-0.2s0.8-0.3,1.2-0.5
			c0.4-0.2,0.7-0.5,1-0.8c0.3-0.3,0.6-0.6,0.9-1l0.6-3.3l-2,0c-0.5,0-1.1,0-1.7,0.1c-0.6,0.1-1.2,0.2-1.7,0.4
			c-0.5,0.2-1,0.5-1.3,0.9s-0.6,0.9-0.7,1.6c0,0.4,0,0.8,0.1,1.1c0.1,0.3,0.3,0.6,0.5,0.8c0.2,0.2,0.5,0.4,0.8,0.5
			C388.4,197.2,388.7,197.2,389.1,197.2z"/>
		<path class="st12" d="M402.7,199.3H400l4-22.9h2.7L402.7,199.3z"/>
		<path class="st12" d="M413.8,199.6c-1.1,0-2.1-0.2-2.9-0.7c-0.8-0.4-1.4-1-1.9-1.7c-0.5-0.7-0.8-1.5-1.1-2.5
			c-0.2-0.9-0.3-1.9-0.2-2.9l0.1-0.6c0.1-0.7,0.2-1.4,0.4-2.1c0.2-0.7,0.5-1.3,0.8-2c0.3-0.6,0.7-1.2,1.2-1.7s1-1,1.5-1.4
			c0.6-0.4,1.2-0.7,1.9-0.9c0.7-0.2,1.4-0.3,2.2-0.3c1.1,0,2,0.3,2.8,0.7c0.7,0.5,1.3,1.1,1.7,1.8c0.4,0.7,0.7,1.6,0.8,2.5
			c0.1,0.9,0.1,1.9,0,2.9L421,192h-10.5c-0.1,0.6-0.1,1.3,0,1.9c0.1,0.6,0.3,1.2,0.6,1.7c0.3,0.5,0.7,0.9,1.2,1.2
			c0.5,0.3,1.1,0.5,1.8,0.5c0.9,0,1.7-0.2,2.5-0.6s1.4-0.9,2-1.6l1.5,1.3c-0.4,0.5-0.8,1-1.2,1.4c-0.5,0.4-1,0.7-1.5,1
			s-1.1,0.5-1.7,0.6C415.1,199.6,414.4,199.6,413.8,199.6z M415.8,185.2c-0.7,0-1.3,0.1-1.8,0.4c-0.5,0.3-1,0.6-1.4,1.1
			c-0.4,0.4-0.7,0.9-1,1.5s-0.5,1.1-0.7,1.7l7.8,0l0.1-0.3c0.1-0.5,0.1-1,0-1.6c-0.1-0.5-0.2-1-0.5-1.4s-0.6-0.8-1-1
			S416.4,185.2,415.8,185.2z"/>
		<path class="st12" d="M432.9,195c0.1-0.5,0-0.8-0.2-1.1s-0.4-0.6-0.7-0.8c-0.3-0.2-0.7-0.4-1-0.5s-0.8-0.2-1.1-0.3
			c-0.6-0.1-1.2-0.3-1.8-0.6c-0.6-0.2-1.2-0.5-1.6-0.8c-0.5-0.3-0.9-0.8-1.2-1.3c-0.3-0.5-0.4-1.1-0.4-1.9c0-0.8,0.3-1.5,0.6-2.1
			c0.4-0.6,0.9-1.1,1.5-1.5s1.3-0.7,2-0.9s1.5-0.3,2.2-0.3c0.8,0,1.5,0.1,2.1,0.4c0.7,0.2,1.3,0.6,1.8,1c0.5,0.4,0.9,1,1.2,1.6
			c0.3,0.6,0.4,1.3,0.4,2.1l-2.7,0c0-0.4-0.1-0.8-0.2-1.1c-0.1-0.3-0.3-0.6-0.6-0.9c-0.3-0.2-0.6-0.4-0.9-0.6s-0.7-0.2-1.2-0.2
			c-0.4,0-0.8,0-1.2,0.1c-0.4,0.1-0.8,0.2-1.1,0.4c-0.3,0.2-0.6,0.5-0.8,0.8s-0.4,0.7-0.4,1.1c0,0.3,0,0.5,0.1,0.8
			c0.1,0.2,0.2,0.4,0.4,0.6c0.2,0.2,0.3,0.3,0.6,0.4s0.4,0.2,0.7,0.3c0.2,0.1,0.5,0.2,0.7,0.2s0.5,0.1,0.7,0.2
			c0.6,0.2,1.2,0.4,1.8,0.6s1.2,0.5,1.6,0.9s0.9,0.8,1.2,1.3s0.4,1.2,0.4,1.9c0,0.8-0.3,1.6-0.7,2.2c-0.4,0.6-0.9,1.1-1.5,1.5
			c-0.6,0.4-1.3,0.7-2.1,0.9c-0.8,0.2-1.5,0.3-2.3,0.3c-0.8,0-1.5-0.1-2.2-0.4s-1.3-0.6-1.9-1c-0.5-0.4-1-1-1.3-1.6
			s-0.5-1.4-0.4-2.2l2.7,0c0,0.5,0.1,0.9,0.2,1.3s0.4,0.7,0.7,0.9c0.3,0.3,0.6,0.4,1,0.6s0.8,0.2,1.3,0.2c0.4,0,0.8,0,1.2-0.1
			c0.4-0.1,0.8-0.2,1.2-0.4s0.7-0.4,0.9-0.7C432.7,195.8,432.8,195.4,432.9,195z"/>
		<path class="st12" d="M452.4,197.4c0.5,0,1-0.1,1.4-0.2c0.5-0.1,0.9-0.4,1.2-0.6s0.7-0.6,0.9-1c0.3-0.4,0.5-0.8,0.6-1.3l2.5,0
			c-0.1,0.8-0.4,1.5-0.8,2.2c-0.4,0.7-1,1.2-1.6,1.7c-0.6,0.5-1.3,0.8-2.1,1.1c-0.8,0.3-1.6,0.4-2.3,0.4c-1.1,0-2.1-0.3-2.9-0.7
			s-1.4-1.1-1.9-1.8c-0.5-0.7-0.8-1.6-0.9-2.5s-0.2-1.9-0.1-2.9l0.1-0.6c0.1-1.1,0.4-2.1,0.8-3.1c0.4-1,1-1.9,1.7-2.6
			c0.7-0.7,1.5-1.3,2.4-1.8s2-0.6,3.2-0.6c0.8,0,1.6,0.2,2.3,0.5c0.7,0.3,1.3,0.7,1.7,1.2c0.5,0.5,0.8,1.1,1.1,1.8
			c0.3,0.7,0.4,1.5,0.4,2.3h-2.5c0-0.5-0.1-0.9-0.2-1.4s-0.3-0.8-0.6-1.1c-0.3-0.3-0.6-0.6-1-0.8c-0.4-0.2-0.8-0.3-1.4-0.3
			c-0.8,0-1.5,0.1-2.2,0.5c-0.6,0.3-1.1,0.8-1.6,1.3c-0.4,0.6-0.8,1.2-1,1.9c-0.3,0.7-0.4,1.4-0.5,2.1l-0.1,0.6
			c-0.1,0.6-0.1,1.3-0.1,2c0,0.7,0.2,1.3,0.4,1.8c0.2,0.6,0.6,1,1,1.4S451.6,197.4,452.4,197.4z"/>
		<path class="st12" d="M462.2,191.2c0.1-0.7,0.2-1.4,0.5-2.1c0.2-0.7,0.5-1.4,0.9-2c0.3-0.6,0.8-1.2,1.2-1.7c0.5-0.5,1-1,1.6-1.3
			s1.2-0.7,1.9-0.9c0.7-0.2,1.4-0.3,2.2-0.3c1.1,0,2.1,0.3,2.9,0.8c0.8,0.5,1.4,1.1,1.9,1.8c0.5,0.8,0.8,1.6,1,2.6s0.2,2,0.1,3
			l0,0.3c-0.1,1.1-0.4,2.1-0.9,3.1c-0.4,1-1,1.9-1.7,2.6s-1.5,1.4-2.5,1.8s-2,0.6-3.2,0.6c-1.1,0-2.1-0.3-2.9-0.7s-1.4-1.1-1.9-1.8
			s-0.8-1.6-1-2.6s-0.2-1.9-0.1-2.9L462.2,191.2z M464.9,191.5c0,0.4-0.1,0.8-0.1,1.3c0,0.4,0,0.9,0.1,1.3s0.2,0.8,0.4,1.2
			c0.2,0.4,0.4,0.7,0.6,1c0.3,0.3,0.6,0.5,1,0.7c0.4,0.2,0.8,0.3,1.3,0.3c0.8,0,1.6-0.1,2.2-0.5c0.6-0.4,1.2-0.8,1.6-1.4
			c0.5-0.6,0.8-1.2,1.1-1.9c0.3-0.7,0.5-1.4,0.6-2.2l0-0.3c0-0.4,0.1-0.9,0.1-1.3c0-0.5,0-0.9-0.1-1.3s-0.2-0.8-0.3-1.2
			c-0.2-0.4-0.4-0.7-0.6-1c-0.3-0.3-0.6-0.5-1-0.7c-0.4-0.2-0.8-0.3-1.4-0.3c-0.8,0-1.6,0.1-2.2,0.5c-0.6,0.4-1.2,0.8-1.6,1.4
			c-0.4,0.6-0.8,1.2-1.1,2c-0.3,0.7-0.5,1.5-0.6,2.2L464.9,191.5z"/>
		<path class="st12" d="M483.8,183.2l-0.3,1.8c0.7-0.7,1.4-1.2,2.2-1.6s1.7-0.5,2.7-0.5c0.4,0,0.9,0.1,1.3,0.2
			c0.4,0.1,0.8,0.3,1.2,0.5c0.4,0.2,0.7,0.5,1,0.8c0.3,0.3,0.5,0.7,0.6,1.2c0.7-0.8,1.5-1.5,2.4-1.9c0.9-0.5,1.9-0.7,3-0.7
			c0.9,0,1.6,0.2,2.2,0.5s1.1,0.7,1.4,1.2s0.6,1.1,0.7,1.8s0.1,1.5,0.1,2.3l-1.8,10.6h-2.7l1.8-10.6c0.1-0.5,0.1-1,0-1.4
			s-0.2-0.8-0.4-1.1c-0.2-0.3-0.5-0.5-0.9-0.7s-0.8-0.3-1.4-0.3c-0.5,0-1,0.1-1.5,0.2s-0.9,0.4-1.3,0.7s-0.7,0.7-1,1.1
			c-0.3,0.4-0.4,0.9-0.6,1.4l-1.8,10.7h-2.7l1.8-10.6c0.1-0.5,0.1-1,0-1.4c-0.1-0.4-0.2-0.8-0.4-1.1c-0.2-0.3-0.5-0.5-0.9-0.7
			s-0.8-0.3-1.3-0.3c-0.9,0-1.7,0.2-2.3,0.6c-0.7,0.4-1.2,1-1.7,1.7l-2,11.8h-2.7l2.8-16.1L483.8,183.2z"/>
		<path class="st12" d="M519.2,191.3c-0.1,0.7-0.2,1.3-0.4,2s-0.4,1.3-0.7,1.9c-0.3,0.6-0.6,1.2-1,1.7s-0.8,1-1.4,1.4
			c-0.5,0.4-1.1,0.7-1.7,0.9c-0.6,0.2-1.3,0.3-2.1,0.3c-0.8,0-1.6-0.2-2.4-0.5c-0.7-0.3-1.4-0.8-1.9-1.4l-1.4,7.8h-2.7l3.9-22.3
			l2.4,0l-0.3,1.8c0.6-0.7,1.4-1.2,2.2-1.6c0.8-0.4,1.7-0.5,2.6-0.5c0.7,0,1.4,0.1,1.9,0.4s1,0.6,1.4,1c0.4,0.4,0.7,0.9,0.9,1.4
			s0.4,1.1,0.5,1.7s0.2,1.2,0.2,1.8c0,0.6,0,1.2-0.1,1.8L519.2,191.3z M516.5,191c0-0.4,0.1-0.8,0.1-1.3c0-0.4,0-0.9-0.1-1.3
			s-0.2-0.8-0.3-1.2c-0.1-0.4-0.3-0.7-0.6-1s-0.6-0.5-0.9-0.7c-0.4-0.2-0.8-0.3-1.3-0.3c-0.9,0-1.6,0.2-2.3,0.6s-1.2,1-1.7,1.6
			l-1.4,7.7c0.3,0.7,0.7,1.2,1.3,1.6s1.2,0.6,2,0.6c0.8,0,1.5-0.2,2.2-0.5c0.6-0.4,1.1-0.8,1.6-1.4s0.8-1.2,1-2s0.4-1.4,0.5-2.1
			L516.5,191z"/>
		<path class="st12" d="M531.1,199.3c-0.1-0.3-0.1-0.6-0.1-0.8c0-0.3,0-0.6,0-0.8c-0.7,0.6-1.4,1.1-2.2,1.5
			c-0.8,0.4-1.6,0.5-2.5,0.5c-0.7,0-1.3-0.1-1.9-0.3c-0.6-0.2-1.1-0.5-1.5-0.9s-0.8-0.9-1-1.5c-0.2-0.6-0.3-1.2-0.3-1.9
			c0.1-1,0.3-1.9,0.8-2.6c0.5-0.7,1.1-1.3,1.8-1.7s1.5-0.7,2.4-0.9s1.8-0.3,2.7-0.3l2.8,0l0.2-1.3c0-0.5,0-0.9-0.1-1.3
			c-0.1-0.4-0.2-0.7-0.5-1c-0.2-0.3-0.5-0.5-0.9-0.6c-0.4-0.2-0.8-0.2-1.3-0.2c-0.4,0-0.8,0-1.2,0.1c-0.4,0.1-0.8,0.3-1.1,0.5
			c-0.3,0.2-0.6,0.5-0.9,0.8c-0.2,0.3-0.4,0.7-0.5,1.1l-2.7,0c0.1-0.8,0.3-1.5,0.8-2.1s1-1.1,1.6-1.5c0.6-0.4,1.3-0.7,2.1-0.9
			c0.8-0.2,1.5-0.3,2.2-0.3c0.8,0,1.6,0.2,2.2,0.4c0.7,0.3,1.2,0.6,1.7,1.1c0.5,0.5,0.8,1,1,1.7s0.3,1.4,0.2,2.2l-1.2,7.5
			c-0.1,0.5-0.1,1.1-0.2,1.6c0,0.5,0,1.1,0.2,1.6l0,0.3H531.1z M526.9,197.2c0.5,0,0.9,0,1.3-0.2s0.8-0.3,1.2-0.5
			c0.4-0.2,0.7-0.5,1-0.8c0.3-0.3,0.6-0.6,0.9-1l0.6-3.3l-2,0c-0.5,0-1.1,0-1.7,0.1c-0.6,0.1-1.2,0.2-1.7,0.4
			c-0.5,0.2-1,0.5-1.3,0.9s-0.6,0.9-0.7,1.6c0,0.4,0,0.8,0.1,1.1c0.1,0.3,0.3,0.6,0.5,0.8c0.2,0.2,0.5,0.4,0.8,0.5
			C526.1,197.2,526.5,197.2,526.9,197.2z"/>
		<path class="st12" d="M542.9,183.2l-0.4,2c0.7-0.7,1.4-1.3,2.2-1.7s1.7-0.6,2.7-0.6c0.9,0,1.6,0.2,2.2,0.5c0.6,0.3,1,0.7,1.3,1.3
			c0.3,0.5,0.5,1.1,0.6,1.9c0.1,0.7,0.1,1.4,0,2.2l-1.8,10.6h-2.7l1.8-10.6c0.1-0.5,0.1-0.9,0-1.4s-0.2-0.8-0.3-1.1
			c-0.2-0.3-0.4-0.6-0.8-0.7c-0.3-0.2-0.8-0.3-1.3-0.3c-0.5,0-0.9,0.1-1.3,0.2s-0.8,0.3-1.1,0.6c-0.4,0.2-0.7,0.5-1,0.8
			c-0.3,0.3-0.6,0.7-0.8,1l-2,11.5h-2.7l2.8-16.1L542.9,183.2z"/>
		<path class="st12" d="M559.8,195.3l5.7-12h3l-9.5,18.6c-0.3,0.5-0.6,1-0.9,1.5c-0.3,0.5-0.7,0.9-1.1,1.3c-0.4,0.4-0.9,0.7-1.4,0.9
			s-1.1,0.3-1.7,0.3c-0.3,0-0.6,0-0.8-0.1c-0.3-0.1-0.5-0.1-0.8-0.2l0.2-2.2c0.1,0,0.2,0,0.3,0.1c0.1,0,0.2,0,0.4,0
			c0.5,0,0.9,0,1.3-0.1c0.4-0.1,0.7-0.3,1-0.5c0.3-0.2,0.6-0.5,0.8-0.8c0.2-0.3,0.5-0.7,0.7-1.1l1-1.8l-2.8-15.8h2.8L559.8,195.3z"
			/>
	</g>
</g>
</svg>
