<svg version="1.0" xmlns="http://www.w3.org/2000/svg"
 width="510.000000pt" height="210.000000pt" viewBox="0 0 510.000000 210.000000"
 preserveAspectRatio="xMidYMid meet">

<g transform="translate(0.000000,210.000000) scale(0.100000,-0.100000)"
fill="#fff" stroke="none">
<path d="M640 1210 l0 -670 105 0 105 0 0 670 0 670 -105 0 -105 0 0 -670z"/>
<path d="M1022 1049 l3 -831 100 0 100 0 3 313 2 312 31 -48 c48 -75 133 -151
220 -194 104 -52 168 -64 309 -59 98 4 126 9 192 35 192 76 324 223 389 433
33 107 33 284 1 390 -48 154 -134 276 -255 360 -239 169 -570 150 -774 -43
-29 -27 -67 -72 -85 -100 l-33 -52 -3 158 -3 157 -99 0 -100 0 2 -831z m813
616 c169 -45 307 -182 344 -346 6 -24 11 -75 11 -114 0 -352 -359 -579 -679
-428 -80 38 -174 135 -212 218 -169 373 149 770 536 670z"/>
<path d="M2833 1865 c-125 -35 -233 -116 -279 -211 -51 -105 -41 -240 26 -333
60 -83 141 -121 460 -215 136 -40 189 -100 177 -202 -14 -129 -191 -204 -361
-155 -70 21 -143 91 -152 149 l-7 42 -100 0 -99 0 4 -52 c28 -333 536 -470
804 -216 81 77 107 132 112 243 5 116 -19 187 -87 255 -60 60 -125 90 -316
145 -177 51 -222 71 -258 114 -133 158 147 337 353 225 59 -32 89 -69 97 -119
l6 -35 103 0 103 0 -5 38 c-21 147 -117 259 -269 313 -78 28 -237 35 -312 14z"/>
<path d="M3879 1862 c-117 -31 -221 -109 -270 -204 -25 -49 -37 -135 -29 -201
22 -156 141 -248 418 -322 152 -40 197 -60 239 -108 43 -49 50 -107 21 -165
-31 -61 -80 -98 -158 -118 -80 -20 -155 -13 -227 22 -64 31 -100 72 -114 130
l-11 44 -100 0 -101 0 7 -52 c27 -202 219 -347 461 -348 238 0 437 152 461
351 7 62 -9 156 -36 209 -27 52 -103 118 -173 150 -34 15 -130 47 -212 69
-169 47 -219 71 -252 120 -51 75 -19 163 76 215 146 78 346 19 382 -114 l12
-45 100 3 100 3 -7 46 c-32 238 -310 387 -587 315z"/>
<path d="M4650 1210 l0 -670 105 0 105 0 0 670 0 670 -105 0 -105 0 0 -670z"/>
<path d="M324 776 c-121 -54 -86 -236 46 -236 71 0 120 51 120 125 0 85 -89
145 -166 111z"/>
</g>
</svg>
