<svg width="151" height="34" viewBox="0 0 151 34" fill="none" xmlns="http://www.w3.org/2000/svg">
<path fill-rule="evenodd" clip-rule="evenodd" d="M14.087 15.7497C13.8397 15.4993 13.5006 15.3582 13.1465 15.3582H3.89442V12.1799H15.6361V8.68091H2.86863C2.51459 8.68091 2.17549 8.82202 1.92813 9.07221L0.374498 10.6438C0.134258 10.8867 0 11.2125 0 11.5522V15.9847C0 16.3242 0.134258 16.6503 0.374498 16.893L1.92813 18.4645C2.17549 18.7149 2.51459 18.8558 2.86863 18.8558H12.1207V22.0332H0.28392V25.532H13.1465C13.5006 25.532 13.8397 25.3909 14.087 25.1407L15.6409 23.5689C15.8809 23.3262 16.0152 23.0001 16.0152 22.6606V18.2295C16.0152 17.8901 15.8809 17.564 15.6409 17.3213L14.087 15.7497ZM22.1261 8.68091H18.303V22.6913C18.303 23.1062 18.4714 23.5032 18.77 23.7916L20.1272 25.1023C20.4124 25.3779 20.7935 25.532 21.1901 25.532H28.2171V22.0344H22.1261V15.6786H28.2171V12.1799H22.1261V8.68091ZM40.3258 21.9621H34.4113V15.4066H40.3258V21.9621ZM41.2823 11.7873C41.6875 11.7873 42.0769 11.9464 42.3686 12.2311L43.7551 13.5848C44.0602 13.8826 44.2323 14.2926 44.2323 14.7211V22.6408C44.2323 23.0693 44.0602 23.4793 43.7551 23.7771L42.3686 25.1308C42.0769 25.4154 41.6875 25.5746 41.2823 25.5746H33.4552C33.05 25.5746 32.6603 25.4154 32.3689 25.1308L30.9824 23.7771C30.6773 23.4793 30.505 23.0693 30.505 22.6408V14.7211C30.505 14.2926 30.6773 13.8826 30.9824 13.5848L32.3689 12.2311C32.6603 11.9464 33.05 11.7873 33.4552 11.7873H41.2823ZM48.3913 12.2311L46.9991 13.5848C46.693 13.8826 46.5202 14.2926 46.5202 14.7211V22.6408C46.5202 23.0693 46.693 23.4793 46.9991 23.7771L48.3913 25.1308C48.6839 25.4154 49.0751 25.5746 49.4819 25.5746H58.7222V21.9607H50.4419V15.4066H58.7222V11.7873H49.4819C49.0751 11.7873 48.6839 11.9464 48.3913 12.2311ZM67.1714 17.0036L70.8718 12.1824H75.4999L70.3581 18.8819L75.4618 25.532H70.8336L66.9736 20.5023H64.8788V25.532H61.01V8.68091H64.8788V17.0036H67.1714ZM141.179 21.962H147.094V15.4054H141.179V21.962ZM150.523 13.5848L149.136 12.2311C148.845 11.9465 148.455 11.7873 148.05 11.7873H140.223C139.817 11.7873 139.428 11.9465 139.137 12.2311L137.75 13.5848C137.445 13.8827 137.273 14.2927 137.273 14.7212V22.6407C137.273 23.0692 137.445 23.4792 137.75 23.7771L139.137 25.1308C139.428 25.4154 139.817 25.5746 140.223 25.5746H148.05C148.455 25.5746 148.845 25.4154 149.136 25.1308L150.523 23.7771C150.828 23.4792 151 23.0692 151 22.6407V14.7212C151 14.2927 150.828 13.8827 150.523 13.5848ZM119.701 17.0037H111.375V12.1799H119.701V17.0037ZM120.642 8.68091C121.041 8.68091 121.424 8.83497 121.711 9.11038L123.076 10.4213C123.376 10.7094 123.545 11.1066 123.545 11.5218V17.6617C123.545 18.0766 123.376 18.4736 123.076 18.7622L121.711 20.0729C121.424 20.3483 121.041 20.5023 120.642 20.5023H111.375V25.532H107.53V8.68091H120.642ZM127.714 12.2309L126.315 13.5848C126.007 13.8827 125.833 14.2927 125.833 14.7212V25.5746H129.776V15.3999H135.748V11.7873H128.811C128.402 11.7873 128.009 11.9465 127.714 12.2309ZM102.832 15.8893L91.1521 8.81591C90.8549 8.63591 90.4896 8.63591 90.1924 8.81591L78.5125 15.8893C78.2132 16.0705 78.0287 16.4069 78.0287 16.7708V24.5439C78.0287 25.1053 78.46 25.5603 78.9924 25.5603H84.5466L84.542 29.9681C84.542 30.3234 84.727 30.6516 85.0271 30.8282L90.1898 33.8685C90.4873 34.0438 90.8528 34.0438 91.1501 33.8685L96.3128 30.8282C96.6129 30.6516 96.798 30.3234 96.798 29.9681L96.8024 25.5603H102.352C102.884 25.5603 103.316 25.1053 103.316 24.5439V16.7708C103.316 16.4069 103.131 16.0705 102.832 15.8893ZM96.7901 25.5603H84.5545V21.0266C84.5545 20.6624 84.7391 20.326 85.0387 20.1448L90.1929 17.0279C90.4899 16.8486 90.8546 16.8486 91.1516 17.0279L96.3058 20.1448C96.6052 20.326 96.7901 20.6624 96.7901 21.0266V25.5603Z" fill="#fff"/>
</svg>
