<svg id="Calque_1" data-name="Calque 1" xmlns="http://www.w3.org/2000/svg" xmlns:xlink="http://www.w3.org/1999/xlink" viewBox="0 0 138.03 64"><defs><style>.cls-1{fill:url(#Dégradé_sans_nom);}.cls-2{fill:url(#Dégradé_sans_nom_2);}.cls-3{fill:#f39223;}.cls-4{fill:#fff;}.cls-5,.cls-6{fill:none;}.cls-5{stroke:#178fa4;}.cls-6{stroke:#f5f7fa;}.cls-7{fill:#0085c1;}</style><linearGradient id="Dégradé_sans_nom" x1="-231.81" y1="422.33" x2="-231.81" y2="423.33" gradientTransform="matrix(64, 0, 0, -64, 14870.05, 27092.57)" gradientUnits="userSpaceOnUse"><stop offset="0" stop-color="#0a6177"/><stop offset="0.13" stop-color="#0a6177"/><stop offset="0.15" stop-color="#0a6177"/><stop offset="0.23" stop-color="#08687e"/><stop offset="0.36" stop-color="#057b91"/><stop offset="0.46" stop-color="#048ea4"/><stop offset="0.92" stop-color="#048ea4"/><stop offset="1" stop-color="#048ea4"/></linearGradient><linearGradient id="Dégradé_sans_nom_2" x1="-231.49" y1="411.88" x2="-231.49" y2="412.88" gradientTransform="matrix(58.86, 0, 0, -22.51, 13659.2, 9296.92)" gradientUnits="userSpaceOnUse"><stop offset="0" stop-color="#0a6177"/><stop offset="0" stop-color="#08687e"/><stop offset="0" stop-color="#057b91"/><stop offset="0" stop-color="#048ea4"/><stop offset="0.39" stop-color="#108fa4"/><stop offset="0.53" stop-color="#2793a7"/><stop offset="0.63" stop-color="#3e98ac"/><stop offset="0.71" stop-color="#58a1b3"/><stop offset="0.78" stop-color="#74acbd"/><stop offset="0.84" stop-color="#93bbc9"/><stop offset="0.9" stop-color="#b3cdd8"/><stop offset="0.95" stop-color="#d6e3e9"/><stop offset="0.99" stop-color="#fafbfc"/><stop offset="1" stop-color="#fff"/><stop offset="1" stop-color="#048ea4"/></linearGradient></defs><g id="Groupe_981" data-name="Groupe 981"><g id="logo_corporate_copie" data-name="logo corporate copie"><path id="Tracé_8306" data-name="Tracé 8306" class="cls-1" d="M66.07,58.52A5.45,5.45,0,0,1,60.64,64H8a5.45,5.45,0,0,1-5.43-5.48h0v-53A5.45,5.45,0,0,1,8,0H60.63a5.46,5.46,0,0,1,5.44,5.47h0Z"/><path id="Tracé_8307" data-name="Tracé 8307" class="cls-2" d="M63.52,24.35v-17a5.41,5.41,0,0,0-5.35-5.47H10.44A5.41,5.41,0,0,0,5.1,7.31v17Z"/><g id="Forme_1" data-name="Forme 1"><g id="Groupe_981-2" data-name="Groupe 981-2"><path id="Tracé_8308" data-name="Tracé 8308" class="cls-3" d="M64,40.1C58.33,42.57,47.29,46,29.09,46,14,46,.52,39.74.52,39.74v5.38s16.32,4.67,30,3.92C46.15,48.18,57.61,44,63.7,40.89a22.31,22.31,0,0,0,5-3.25A30.23,30.23,0,0,1,64,40.1Z"/></g></g><g id="Forme_3" data-name="Forme 3"><g id="Groupe_982" data-name="Groupe 982"><ellipse id="Ellipse_42" data-name="Ellipse 42" class="cls-4" cx="48.39" cy="41.14" rx="3.56" ry="3.6"/></g></g><line id="Ligne_137" data-name="Ligne 137" class="cls-5" x1="64.51" y1="24.35" x2="4.62" y2="24.35"/><g id="Groupe_983" data-name="Groupe 983"><path id="Tracé_8309" data-name="Tracé 8309" class="cls-4" d="M7.47,20.39h.94v2.73H9.9v.81H8.41v6.53H7.47V23.93H6.19v-.81H7.47Z"/><path id="Tracé_8310" data-name="Tracé 8310" class="cls-4" d="M11,23.12h1v1.07a3.39,3.39,0,0,1,.9-1,1.76,1.76,0,0,1,1-.31,1.61,1.61,0,0,1,.83.25l-.48.8a1.28,1.28,0,0,0-.5-.13,1.37,1.37,0,0,0-.91.39,2.46,2.46,0,0,0-.66,1.2A11.39,11.39,0,0,0,11.91,28v2.49H11V23.12Z"/><path id="Tracé_8311" data-name="Tracé 8311" class="cls-4" d="M22.7,23.11v7.35h-.93V29.2a4.21,4.21,0,0,1-1.32,1.09,3.68,3.68,0,0,1-4.25-.77,3.8,3.8,0,0,1-1.09-2.75,3.67,3.67,0,0,1,1.11-2.71,3.53,3.53,0,0,1,2.66-1.13,3.39,3.39,0,0,1,1.62.38,3.75,3.75,0,0,1,1.28,1.16V23.12h.92ZM19,23.84a2.83,2.83,0,0,0-2.5,1.47,3,3,0,0,0,0,3,2.87,2.87,0,0,0,2.49,1.5,2.91,2.91,0,0,0,1.46-.4,2.74,2.74,0,0,0,1.06-1.05,3,3,0,0,0,.37-1.5A2.94,2.94,0,0,0,21,24.69a2.71,2.71,0,0,0-2-.85Z"/><path id="Tracé_8312" data-name="Tracé 8312" class="cls-4" d="M24.81,23.12h.93v1.31A4,4,0,0,1,27,23.3a3,3,0,0,1,1.49-.37,2.55,2.55,0,0,1,2.39,1.54,6.12,6.12,0,0,1,.29,2.21v3.78h-.93V27a9.59,9.59,0,0,0-.1-1.69,1.89,1.89,0,0,0-.63-1.1,1.87,1.87,0,0,0-1.21-.37,2.31,2.31,0,0,0-1.52.57,2.65,2.65,0,0,0-.89,1.4,9.57,9.57,0,0,0-.14,2v2.69H24.8V23.12Z"/><path id="Tracé_8313" data-name="Tracé 8313" class="cls-4" d="M36.84,23.92l-.6.63a2.18,2.18,0,0,0-1.47-.74,1.12,1.12,0,0,0-.79.3,1,1,0,0,0-.32.71,1,1,0,0,0,.27.68,3.64,3.64,0,0,0,1.12.78,4.11,4.11,0,0,1,1.43,1,2,2,0,0,1,.37,1.15A2.11,2.11,0,0,1,36.22,30a2.16,2.16,0,0,1-1.58.62,2.81,2.81,0,0,1-1.21-.27,2.72,2.72,0,0,1-1-.77l.59-.67a2.12,2.12,0,0,0,1.53.82,1.42,1.42,0,0,0,1-.37,1.13,1.13,0,0,0,.4-.86,1.12,1.12,0,0,0-.26-.72A4.3,4.3,0,0,0,34.51,27a3.89,3.89,0,0,1-1.34-1,2,2,0,0,1-.36-1.14,1.92,1.92,0,0,1,.57-1.4,2,2,0,0,1,1.43-.55A3,3,0,0,1,36.84,23.92Z"/><path id="Tracé_8314" data-name="Tracé 8314" class="cls-4" d="M45.77,23.11v7.35h-.93V29.2a4.21,4.21,0,0,1-1.32,1.09,3.68,3.68,0,0,1-4.25-.77,3.8,3.8,0,0,1-1.09-2.75,3.7,3.7,0,0,1,1.1-2.71,3.56,3.56,0,0,1,2.66-1.13,3.4,3.4,0,0,1,1.63.38,3.75,3.75,0,0,1,1.28,1.16V23.12h.92ZM42,23.84a2.83,2.83,0,0,0-2.5,1.47,3,3,0,0,0,0,3,2.8,2.8,0,0,0,1.06,1.1,2.75,2.75,0,0,0,1.43.4,2.91,2.91,0,0,0,1.46-.4,2.74,2.74,0,0,0,1.06-1.05,3,3,0,0,0,.37-1.5,2.94,2.94,0,0,0-.84-2.14,2.71,2.71,0,0,0-2-.85Z"/><path id="Tracé_8315" data-name="Tracé 8315" class="cls-4" d="M48.7,20.39h.93v2.73h1.49v.81H49.63v6.53H48.7V23.93H47.42v-.81H48.7Z"/><path id="Tracé_8316" data-name="Tracé 8316" class="cls-4" d="M58.67,28l.79.42a4.11,4.11,0,0,1-.9,1.24,3.29,3.29,0,0,1-1.15.72,3.94,3.94,0,0,1-1.44.25,3.47,3.47,0,0,1-2.79-1.18A4.05,4.05,0,0,1,53,24.32a3.46,3.46,0,0,1,2.89-1.39,3.6,3.6,0,0,1,3,1.42,4,4,0,0,1,.8,2.51H53.14A3,3,0,0,0,54,29a2.56,2.56,0,0,0,1.94.82,3.14,3.14,0,0,0,1.09-.2,2.94,2.94,0,0,0,.89-.51A4.86,4.86,0,0,0,58.67,28Zm0-2a3.17,3.17,0,0,0-.55-1.21,2.5,2.5,0,0,0-.95-.73,3,3,0,0,0-1.24-.28,2.7,2.7,0,0,0-1.85.7,3.2,3.2,0,0,0-.85,1.52h5.44Z"/><path id="Tracé_8317" data-name="Tracé 8317" class="cls-4" d="M61.31,20.28h.93V30.46h-.93Z"/></g></g><line id="Ligne_138" data-name="Ligne 138" class="cls-6" x1="78.43" x2="78.43" y2="64"/><g id="Groupe_984" data-name="Groupe 984"><path id="path2440" class="cls-7" d="M113.91,43.7C103,43.7,90.34,35.41,90.34,21c0-13.61,9.47-21,17.75-21a14.09,14.09,0,0,1,5.83,1.16h0A14.11,14.11,0,0,1,119.77,0c8.27,0,17.75,7.37,17.75,21,0,14.43-12.75,22.72-23.6,22.72Zm0-5.57c9.27,0,17.88-6.93,17.88-17.6,0-9.65-7.07-15.45-12.33-15,0,0,.26.24.86.88a13.6,13.6,0,0,1,3.32,8.53,9.61,9.61,0,0,1-9.41,9.81h-.33a9.61,9.61,0,0,1-9.73-9.49v-.32a13.57,13.57,0,0,1,3.33-8.53l.85-.88c-5.25-.43-12.31,5.37-12.31,15,0,10.66,8.6,17.59,17.87,17.59Zm0-18.85c1.91,0,4.12-1.32,4.12-4.9a9.8,9.8,0,0,0-4.12-7.48h0a9.76,9.76,0,0,0-4.12,7.48c0,3.58,2.21,4.89,4.12,4.89h0"/><path id="path2442" d="M93.74,49.57v2.81h1.54v8.81H93.74V64h6.14V61.19H98.46V55.86L102.58,64h3.06V52.39h1.54V49.57H101v2.84h1.54v5.43l-4.17-8.27Zm14.45,0V55h2.66V52.38h1.57v8.81h-2V64h7.54V61.19h-2.06v-8.8h1.56V55h2.66V49.57Zm12.92,0V55h2.66V52.38h1.54v8.81h-2V64h7.55V61.19h-2.07v-8.8h1.57V55H133V49.57Z"/></g><g id="Groupe_985" data-name="Groupe 985"><g id="Groupe_989" data-name="Groupe 989"><path id="Tracé_8330" data-name="Tracé 8330" class="cls-4" d="M7.46,30.41V24H6.2v-.87H7.46V20.42h1v2.69H9.92V24H8.45v6.43Z"/><path id="Tracé_8331" data-name="Tracé 8331" class="cls-4" d="M8.42,20.45v2.69H9.89V24H8.42v6.43H7.5V24H6.23v-.81H7.5V20.45h.92m.06-.06H7.43v2.69H6.17V24H7.44v6.43h1V24H10v-.93H8.48V20.39Z"/></g><g id="Groupe_990" data-name="Groupe 990"><path id="Tracé_8332" data-name="Tracé 8332" class="cls-4" d="M10.9,30.42V23.1h1v1a3.13,3.13,0,0,1,.84-.86,1.75,1.75,0,0,1,1-.32,1.65,1.65,0,0,1,.84.25l0,0-.51.84,0,0a1.14,1.14,0,0,0-1.35.25,2.51,2.51,0,0,0-.65,1.18,11.69,11.69,0,0,0-.17,2.5v2.49Z"/><path id="Tracé_8333" data-name="Tracé 8333" class="cls-4" d="M13.75,22.94a1.71,1.71,0,0,1,.82.25l-.48.79a1.37,1.37,0,0,0-.49-.13,1.32,1.32,0,0,0-.89.39,2.37,2.37,0,0,0-.65,1.19,11.65,11.65,0,0,0-.18,2.5v2.46h-.94V23.13h.94v1.05a3.65,3.65,0,0,1,.9-.94,1.73,1.73,0,0,1,1-.3m-2.81.18h0m2.81-.24a1.75,1.75,0,0,0-1,.32,3.2,3.2,0,0,0-.8.8v-.94H10.87v7.38h1.06V27.92a11.56,11.56,0,0,1,.18-2.49,2.45,2.45,0,0,1,.63-1.16,1.27,1.27,0,0,1,.86-.37,1.31,1.31,0,0,1,.47.12l0,0,0,0,.48-.79,0-.06-.06,0a1.94,1.94,0,0,0-.85-.24Z"/></g><g id="Groupe_991" data-name="Groupe 991"><path id="Tracé_8334" data-name="Tracé 8334" class="cls-4" d="M18.83,30.6a3.51,3.51,0,0,1-2.63-1.12,3.82,3.82,0,0,1-1.09-2.74,3.71,3.71,0,0,1,1.1-2.7,3.63,3.63,0,0,1,2.65-1.12,3.47,3.47,0,0,1,1.61.38,3.52,3.52,0,0,1,1.22,1.08V23.1h1v7.32h-1v-1.2a4.13,4.13,0,0,1-1.26,1A3.54,3.54,0,0,1,18.83,30.6Zm.1-6.73a2.77,2.77,0,0,0-2.44,1.44,2.91,2.91,0,0,0,0,2.9,2.77,2.77,0,0,0,1,1.08,2.62,2.62,0,0,0,1.39.38,2.89,2.89,0,0,0,1.43-.38,2.68,2.68,0,0,0,1-1,2.92,2.92,0,0,0,.36-1.48,2.89,2.89,0,0,0-.81-2.08,2.76,2.76,0,0,0-2-.83Z"/><path id="Tracé_8335" data-name="Tracé 8335" class="cls-4" d="M18.86,22.94a3.47,3.47,0,0,1,1.61.38,3.72,3.72,0,0,1,1.26,1.14V23.12h.9v7.26h-.91V29.13a3.77,3.77,0,0,1-1.31,1.07,3.64,3.64,0,0,1-4.2-.76,3.83,3.83,0,0,1,2.63-6.5h0m.07,6.77a2.83,2.83,0,0,0,1.44-.39,2.67,2.67,0,0,0,1-1,3,3,0,0,0,.37-1.49,2.88,2.88,0,0,0-.83-2.1,2.68,2.68,0,0,0-2-.85,2.77,2.77,0,0,0-2.47,1.46,3,3,0,0,0,0,2.93,2.79,2.79,0,0,0,2.46,1.48m3.71-6.58h0m-3.78-.25A3.63,3.63,0,0,0,16.19,24a3.78,3.78,0,0,0-1.11,2.72,3.85,3.85,0,0,0,1.1,2.76,3.71,3.71,0,0,0,4.26.77,4.26,4.26,0,0,0,1.23-1v1.14h1V23.07h-1v1.21a3.56,3.56,0,0,0-1.17-1,3.6,3.6,0,0,0-1.64-.39Zm.07,6.77a2.71,2.71,0,0,1-1.39-.38,2.81,2.81,0,0,1-1-1.06,2.92,2.92,0,0,1,0-2.88,2.76,2.76,0,0,1,2.42-1.43,2.71,2.71,0,0,1,2,.83,3.07,3.07,0,0,1,.45,3.52,2.73,2.73,0,0,1-1,1,2.79,2.79,0,0,1-1.41.38Z"/></g><g id="Groupe_992" data-name="Groupe 992"><path id="Tracé_8336" data-name="Tracé 8336" class="cls-4" d="M30.16,30.42V26.93a9.2,9.2,0,0,0-.1-1.66,1.79,1.79,0,0,0-.61-1.07,1.81,1.81,0,0,0-1.17-.36,2.29,2.29,0,0,0-1.49.55,2.52,2.52,0,0,0-.86,1.37,9.28,9.28,0,0,0-.13,2v2.69h-1V23.1h1v1.24A4,4,0,0,1,27,23.28a3.22,3.22,0,0,1,1.49-.37,2.66,2.66,0,0,1,1.45.42,2.45,2.45,0,0,1,.93,1.13,6,6,0,0,1,.31,2.19v3.76Z"/><path id="Tracé_8337" data-name="Tracé 8337" class="cls-4" d="M28.46,22.94a2.5,2.5,0,0,1,1.43.42,2.44,2.44,0,0,1,.92,1.11,5.76,5.76,0,0,1,.3,2.18v3.73h-.92V26.92a9.31,9.31,0,0,0-.1-1.67,1.88,1.88,0,0,0-.62-1.09,1.86,1.86,0,0,0-1.19-.36,2.33,2.33,0,0,0-1.51.56,2.71,2.71,0,0,0-.88,1.39,10,10,0,0,0-.13,2v2.66h-.93V23.13h.93v1.3A4,4,0,0,1,27,23.31a3,3,0,0,1,1.47-.37m0-.06a3.11,3.11,0,0,0-1.49.38,3.76,3.76,0,0,0-1.14,1V23.07h-1v7.37h1V27.72a9.89,9.89,0,0,1,.13-2,2.63,2.63,0,0,1,.86-1.35,2.26,2.26,0,0,1,1.46-.55,1.86,1.86,0,0,1,1.16.36,1.8,1.8,0,0,1,.59,1,8.42,8.42,0,0,1,.1,1.66v3.52h1.05V26.65a5.87,5.87,0,0,0-.31-2.2,2.52,2.52,0,0,0-.94-1.15,2.6,2.6,0,0,0-1.46-.41Z"/></g><g id="Groupe_993" data-name="Groupe 993"><path id="Tracé_8338" data-name="Tracé 8338" class="cls-4" d="M34.63,30.6a2.75,2.75,0,0,1-1.2-.28,2.43,2.43,0,0,1-1-.76h0l.62-.72,0,0a2,2,0,0,0,1.49.8,1.28,1.28,0,0,0,.93-.36,1.07,1.07,0,0,0,.38-.82,1.13,1.13,0,0,0-.25-.7A4.31,4.31,0,0,0,34.49,27a3.77,3.77,0,0,1-1.33-1,1.91,1.91,0,0,1-.36-1.15,1.86,1.86,0,0,1,.57-1.39,2,2,0,0,1,1.44-.56,3,3,0,0,1,2,1l0,0-.64.67,0,0a2.11,2.11,0,0,0-1.43-.72,1.07,1.07,0,0,0-.76.3.85.85,0,0,0-.31.67,1,1,0,0,0,.25.65,3.66,3.66,0,0,0,1.11.76,4.27,4.27,0,0,1,1.41,1.05,2,2,0,0,1,.37,1.16,2.15,2.15,0,0,1-2.2,2.16Z"/><path id="Tracé_8339" data-name="Tracé 8339" class="cls-4" d="M34.8,22.94a2.92,2.92,0,0,1,2,1l-.59.62a2.15,2.15,0,0,0-1.46-.73,1.14,1.14,0,0,0-.77.3.91.91,0,0,0-.32.7,1.07,1.07,0,0,0,.26.68,4.07,4.07,0,0,0,1.12.77,4,4,0,0,1,1.41,1,1.86,1.86,0,0,1,.36,1.13A2.07,2.07,0,0,1,36.19,30a2.13,2.13,0,0,1-1.56.62,2.6,2.6,0,0,1-1.19-.28,2.55,2.55,0,0,1-.94-.75l.58-.66a2,2,0,0,0,1.51.81,1.44,1.44,0,0,0,.95-.36,1.13,1.13,0,0,0,.13-1.57A4.17,4.17,0,0,0,34.5,27a3.7,3.7,0,0,1-1.32-1,2,2,0,0,1,.21-2.5,1.85,1.85,0,0,1,1.4-.56m0-.06h0a2,2,0,0,0-1.45.57,1.92,1.92,0,0,0-.58,1.41A2,2,0,0,0,33.13,26a3.71,3.71,0,0,0,1.34,1,4.26,4.26,0,0,1,1.15.76,1.06,1.06,0,0,1-.13,1.48h0a1.33,1.33,0,0,1-.91.35,2,2,0,0,1-1.46-.79l0-.05,0,.05-.58.67,0,0,0,0a2.66,2.66,0,0,0,.95.78,2.87,2.87,0,0,0,1.22.28,2.23,2.23,0,0,0,1.6-.64,2.14,2.14,0,0,0,.27-2.73,4.11,4.11,0,0,0-1.43-1.05A3.45,3.45,0,0,1,34,25.46a1,1,0,0,1-.25-.63.86.86,0,0,1,.3-.66,1,1,0,0,1,.73-.28,2.1,2.1,0,0,1,1.42.71l0,0,0,0,.6-.62,0,0,0-.05a3,3,0,0,0-2.05-1Z"/></g><g id="Groupe_994" data-name="Groupe 994"><path id="Tracé_8340" data-name="Tracé 8340" class="cls-4" d="M41.9,30.6a3.53,3.53,0,0,1-2.64-1.12,3.86,3.86,0,0,1-1.09-2.74,3.75,3.75,0,0,1,1.1-2.7,3.63,3.63,0,0,1,2.65-1.12,3.51,3.51,0,0,1,1.62.38,3.61,3.61,0,0,1,1.22,1.08V23.1h1v7.32h-1v-1.2a4.06,4.06,0,0,1-1.27,1A3.49,3.49,0,0,1,41.9,30.6ZM42,23.87a2.77,2.77,0,0,0-2.44,1.44,2.91,2.91,0,0,0,0,2.9,2.77,2.77,0,0,0,1,1.08,2.62,2.62,0,0,0,1.39.38,2.89,2.89,0,0,0,1.43-.38,2.78,2.78,0,0,0,1-1,3,3,0,0,0,.36-1.48A2.89,2.89,0,0,0,44,24.7a2.77,2.77,0,0,0-2-.83Z"/><path id="Tracé_8341" data-name="Tracé 8341" class="cls-4" d="M41.93,22.94a3.46,3.46,0,0,1,1.6.38,3.72,3.72,0,0,1,1.26,1.14V23.12h.91v7.26h-.91V29.13a3.77,3.77,0,0,1-1.31,1.07,3.64,3.64,0,0,1-4.2-.76,3.83,3.83,0,0,1,2.63-6.5h0M42,29.71a2.84,2.84,0,0,0,1.45-.39,2.6,2.6,0,0,0,1-1,3,3,0,0,0,.37-1.49,2.91,2.91,0,0,0-.82-2.1,2.7,2.7,0,0,0-2-.85,2.89,2.89,0,0,0-1.43.38,2.81,2.81,0,0,0-1,1.08,3,3,0,0,0,0,2.93,2.89,2.89,0,0,0,1.05,1.09,2.67,2.67,0,0,0,1.4.39m3.72-6.58h0m-3.78-.25A3.6,3.6,0,0,0,39.26,24a3.7,3.7,0,0,0-1.11,2.72,3.84,3.84,0,0,0,1.09,2.76,3.72,3.72,0,0,0,4.27.77,4.09,4.09,0,0,0,1.22-1v1.14h1V23.07h-1v1.21a3.41,3.41,0,0,0-2.8-1.4ZM42,29.65a2.61,2.61,0,0,1-1.38-.38,2.92,2.92,0,0,1-1-3.94A2.78,2.78,0,0,1,42,23.9a2.71,2.71,0,0,1,2,.83,2.86,2.86,0,0,1,.8,2.06,3,3,0,0,1-.35,1.46,2.66,2.66,0,0,1-1,1,2.81,2.81,0,0,1-1.41.38Z"/></g><g id="Groupe_995" data-name="Groupe 995"><path id="Tracé_8342" data-name="Tracé 8342" class="cls-4" d="M48.64,30.41V24H47.38v-.87h1.26V20.42h1v2.69h1.46V24H49.63v6.43Z"/><path id="Tracé_8343" data-name="Tracé 8343" class="cls-4" d="M49.6,20.45v2.69h1.46V24H49.6v6.43h-.93V24H47.41v-.81h1.26V20.45h.93m.06-.06h-1v2.69H47.35V24h1.26v6.43h1V24h1.46v-.93H49.66V20.39Z"/></g><g id="Groupe_996" data-name="Groupe 996"><path id="Tracé_8344" data-name="Tracé 8344" class="cls-4" d="M56,30.6a3.43,3.43,0,0,1-2.78-1.17,4,4,0,0,1-1-2.65A4,4,0,0,1,53,24.3a3.47,3.47,0,0,1,2.88-1.38,3.61,3.61,0,0,1,3,1.42,4.08,4.08,0,0,1,.8,2.5v0H53.21a3,3,0,0,0,.79,2,2.48,2.48,0,0,0,1.89.8A2.93,2.93,0,0,0,57,29.5a2.78,2.78,0,0,0,.88-.51,4.6,4.6,0,0,0,.78-1v0l.83.44v0a4.21,4.21,0,0,1-.89,1.24,3.79,3.79,0,0,1-1.14.72A3.91,3.91,0,0,1,56,30.6ZM58.6,26a3,3,0,0,0-.52-1.15,2.6,2.6,0,0,0-.93-.71,2.81,2.81,0,0,0-1.21-.27,2.61,2.61,0,0,0-1.8.68A3.05,3.05,0,0,0,53.32,26Z"/><path id="Tracé_8345" data-name="Tracé 8345" class="cls-4" d="M55.92,22.94a3.53,3.53,0,0,1,2.94,1.41,4,4,0,0,1,.8,2.48H53.18a3,3,0,0,0,.8,2.08,2.55,2.55,0,0,0,1.91.8A3,3,0,0,0,57,29.52a2.94,2.94,0,0,0,.89-.51,4.41,4.41,0,0,0,.79-1l.78.42a4.12,4.12,0,0,1-.89,1.22,3.63,3.63,0,0,1-1.13.72,4.09,4.09,0,0,1-1.43.24,3.45,3.45,0,0,1-2.76-1.16,4,4,0,0,1-1-2.63,3.83,3.83,0,0,1,.85-2.46,3.41,3.41,0,0,1,2.85-1.39M53.27,26h5.37a2.87,2.87,0,0,0-.54-1.19,2.37,2.37,0,0,0-.94-.72,2.87,2.87,0,0,0-1.22-.28,2.6,2.6,0,0,0-1.82.69,3.05,3.05,0,0,0-.85,1.5m2.65-3.14A3.49,3.49,0,0,0,53,24.28a4.06,4.06,0,0,0,.16,5.17A3.49,3.49,0,0,0,56,30.63a3.93,3.93,0,0,0,1.44-.24,3.57,3.57,0,0,0,1.15-.73,4.38,4.38,0,0,0,.9-1.24l0-.06-.06,0-.78-.41,0,0,0,.05a4.47,4.47,0,0,1-.78,1,2.66,2.66,0,0,1-.86.5,3,3,0,0,1-1,.19A2.49,2.49,0,0,1,54,28.86a2.9,2.9,0,0,1-.78-2h6.49v-.06a4.06,4.06,0,0,0-.81-2.52,3.59,3.59,0,0,0-3-1.43ZM53.35,26a3,3,0,0,1,.8-1.39,2.53,2.53,0,0,1,1.79-.67,2.8,2.8,0,0,1,1.2.27,2.3,2.3,0,0,1,.91.7,2.77,2.77,0,0,1,.51,1.1Z"/></g><g id="Groupe_997" data-name="Groupe 997"><rect id="Rectangle_1480" data-name="Rectangle 1480" class="cls-4" x="61.22" y="20.31" width="0.99" height="10.1"/><path id="Tracé_8346" data-name="Tracé 8346" class="cls-4" d="M62.17,20.34v10h-.93v-10h.93m.06-.06h-1V30.44h1Z"/></g></g></g></svg>