<svg id="Calque_1" data-name="Calque 1" xmlns="http://www.w3.org/2000/svg" viewBox="0 0 264.22 100" width="118" height="44"><defs><style media="all"><style type="text/css">
	.cls-1{fill:#FFF;}
  .cls-2{fill:#008FA4;}
</style></style></defs><path class="cls-1" d="M36.54,0A36.51,36.51,0,0,0,0,36.41,34.63,34.63,0,0,0,4.42,53.87c.2.35,29.94,45,30.4,45.44a2.49,2.49,0,0,0,3.44,0c.45-.44,30.2-45.09,30.39-45.44a34.41,34.41,0,0,0,4.43-17.46A36.5,36.5,0,0,0,36.54,0ZM64.76,50.8c-.3.52-26,39.05-28.22,42.34C34.34,89.85,8.62,51.33,8.32,50.8A29.3,29.3,0,0,1,4.9,36.41a31.64,31.64,0,0,1,63.28,0A29.33,29.33,0,0,1,64.76,50.8Z"></path><path class="cls-2" d="M50.43,17A2.44,2.44,0,0,0,48,19.37V55.42a2.42,2.42,0,0,0,4.83.31,1.61,1.61,0,0,0,0-.31v-36A2.42,2.42,0,0,0,50.43,17Z"></path><path class="cls-2" d="M22.64,43.34a2.41,2.41,0,0,0-2.41,2.41v9.67a2.42,2.42,0,0,0,4.83.31,1.61,1.61,0,0,0,0-.31V45.75a2.4,2.4,0,0,0-2.41-2.41Z"></path><path class="cls-2" d="M31.91,34.82a2.41,2.41,0,0,0-2.42,2.4h0V55.42a2.42,2.42,0,1,0,4.84,0V37.23A2.41,2.41,0,0,0,31.91,34.82Z"></path><path class="cls-2" d="M41.17,25.64a2.42,2.42,0,0,0-2.42,2.42V55.42a2.42,2.42,0,0,0,4.83.31,1.61,1.61,0,0,0,0-.31V28.06a2.4,2.4,0,0,0-2.4-2.42Z"></path><path class="cls-1" d="M137,17a2.69,2.69,0,0,0-2.64,2.64V48.83a16.56,16.56,0,0,1-33.11,0V19.59a2.68,2.68,0,0,0-5.35,0V48.83a21.91,21.91,0,0,0,43.82,0h0V19.59A2.68,2.68,0,0,0,137,17Z"></path><path class="cls-1" d="M168.56,32.58a18,18,0,0,0-13.13,5.65V19.59a2.68,2.68,0,0,0-5.36,0V68.1a2.68,2.68,0,0,0,5.36,0V65.16a18.09,18.09,0,0,0,13.13,5.58,18.76,18.76,0,0,0,18.49-19C187.05,41.17,178.76,32.58,168.56,32.58Zm13.13,19.15a13.14,13.14,0,0,1-26.26,1c0-.35,0-.69,0-1v-.56c.28-7.42,6-13.24,13.13-13.24S181.69,44.13,181.69,51.73Z"></path><path class="cls-1" d="M199.82,32.58a2.61,2.61,0,0,0-2.64,2.58V68.1a2.68,2.68,0,1,0,5.36,0V35.22A2.61,2.61,0,0,0,200,32.58Z"></path><path class="cls-1" d="M199.82,20.67a2.69,2.69,0,0,0-2.64,2.64V25a2.68,2.68,0,1,0,5.36,0V23.31A2.68,2.68,0,0,0,199.82,20.67Z"></path><path class="cls-1" d="M246.17,32.58a2.69,2.69,0,0,0-2.72,2.64h0v3a17.49,17.49,0,0,0-12.76-5.59c-9.91,0-18,8.49-18,18.93s8.06,19,18,19A17.44,17.44,0,0,0,243.45,65v2A12.59,12.59,0,0,1,231,79.69h-.28a12.29,12.29,0,0,1-5.52-1.22,2.46,2.46,0,0,0-2-.24,2.57,2.57,0,0,0-1.56,1.38,2.82,2.82,0,0,0,1.15,3.58A19.6,19.6,0,0,0,230.69,85a18,18,0,0,0,18-18V35.22A2.63,2.63,0,0,0,246.17,32.58Zm-2.72,18.93c0,7.61-5.72,13.8-12.76,13.8S218,59.12,218,51.51s5.69-13.65,12.68-13.65S243.45,44,243.45,51.51Z"></path><path class="cls-1" d="M261.5,32.58a2.61,2.61,0,0,0-2.64,2.58V68.1a2.68,2.68,0,0,0,5.36,0V35.22a2.61,2.61,0,0,0-2.59-2.64Z"></path><path class="cls-1" d="M261.5,20.67a2.69,2.69,0,0,0-2.64,2.64V25a2.68,2.68,0,1,0,5.36,0h0V23.31A2.68,2.68,0,0,0,261.5,20.67Z"></path></svg>